<svg width="23" height="23" viewBox="0 0 23 23" fill="none" xmlns="http://www.w3.org/2000/svg">
<path d="M19.1667 3.83333H3.83335C2.77919 3.83333 1.92627 4.69583 1.92627 5.75L1.91669 17.25C1.91669 18.3042 2.77919 19.1667 3.83335 19.1667H19.1667C20.2209 19.1667 21.0834 18.3042 21.0834 17.25V5.75C21.0834 4.69583 20.2209 3.83333 19.1667 3.83333ZM18.7834 7.90625L12.0079 12.1421C11.7013 12.3337 11.2988 12.3337 10.9921 12.1421L4.21669 7.90625C4.12059 7.85231 4.03644 7.77942 3.96933 7.69202C3.90222 7.60461 3.85354 7.50449 3.82624 7.39773C3.79894 7.29096 3.79359 7.17977 3.8105 7.07088C3.82742 6.96198 3.86626 6.85765 3.92467 6.7642C3.98307 6.67075 4.05983 6.59013 4.1503 6.5272C4.24077 6.46428 4.34306 6.42036 4.451 6.39812C4.55893 6.37587 4.67025 6.37576 4.77823 6.39778C4.8862 6.41981 4.98859 6.46351 5.07919 6.52625L11.5 10.5417L17.9209 6.52625C18.0115 6.46351 18.1138 6.41981 18.2218 6.39778C18.3298 6.37576 18.4411 6.37587 18.549 6.39812C18.657 6.42036 18.7593 6.46428 18.8497 6.5272C18.9402 6.59013 19.017 6.67075 19.0754 6.7642C19.1338 6.85765 19.1726 6.96198 19.1895 7.07088C19.2065 7.17977 19.2011 7.29096 19.1738 7.39773C19.1465 7.50449 19.0978 7.60461 19.0307 7.69202C18.9636 7.77942 18.8794 7.85231 18.7834 7.90625Z" fill="#C5B5DF"/>
</svg>
