<svg width="18" height="19" viewBox="0 0 18 19" fill="none" xmlns="http://www.w3.org/2000/svg">
<g clip-path="url(#clip0_5_20)">
<path d="M5.49643 5.34375V7.125H11.6036V5.34375C11.6036 3.70352 10.2371 2.375 8.55 2.375C6.8629 2.375 5.49643 3.70352 5.49643 5.34375ZM3.05357 7.125V5.34375C3.05357 2.39355 5.51551 0 8.55 0C11.5845 0 14.0464 2.39355 14.0464 5.34375V7.125H14.6571C16.0045 7.125 17.1 8.19004 17.1 9.5V16.625C17.1 17.935 16.0045 19 14.6571 19H2.44286C1.09547 19 0 17.935 0 16.625V9.5C0 8.19004 1.09547 7.125 2.44286 7.125H3.05357Z" fill="#C5B5DF"/>
</g>
<defs>
<clipPath id="clip0_5_20">
<rect width="17.1" height="19" fill="white"/>
</clipPath>
</defs>
</svg>
